# xmcd CD database file
# Copyright (C) 1996 Ti Kan
#
# Track frame offsets:
#  150
#  14552
#  29435
#  42945
#  55847
#  67912
#  80172
#  91945
#  103217
#  115977
#  129357
#  142245
#  155270
#  167832
#  179712
#  191142
#  203267
#  215747
#  227685
#  239415
#  250355
#  263847
#
# Disc length: 3645 seconds
#
# Revision: 2
# Processed by: cddbd v1.4b41PL1 Copyright (c) Steve Scherf et al.
# Submitted via: CDWizzard Release:4.12
#
DISCID=440e3b16
DTITLE=Bobby "Blue" Bland - I Pity The Fool/The Duke Recordings (Volume 
DTITLE=1) [CD1]
DYEAR=1900
DGENRE=
TTITLE0=I.O.U. Blues
TTITLE1=Lovin' Blues
TTITLE2=No Blow No Show
TTITLE3=Wise Man's Blues
TTITLE4=Army Blues
TTITLE5=It's My Life Baby
TTITLE6=Lost Lover's Blues
TTITLE7=Honey Bee
TTITLE8=Time Out
TTITLE9=You Or None (Alt.)
TTITLE10=A Million Miles From Nowhere
TTITLE11=You Or None
TTITLE12=I Woke Up Screaming
TTITLE13=I Can't Put You Down Baby
TTITLE14=You've Got Bad Intentions
TTITLE15=I Don't Believe
TTITLE16=I Learned My Lesson
TTITLE17=Don't Want No Woman
TTITLE18=I Smell Trouble
TTITLE19=Sometime Tomorrow
TTITLE20=Farther Up The Road
TTITLE21=Teach Me
EXTD=MCAD2-10665
EXTT0=
EXTT1=
EXTT2=
EXTT3=
EXTT4=
EXTT5=
EXTT6=
EXTT7=
EXTT8=
EXTT9=
EXTT10=
EXTT11=
EXTT12=
EXTT13=
EXTT14=
EXTT15=
EXTT16=
EXTT17=
EXTT18=
EXTT19=
EXTT20=
EXTT21=
PLAYORDER=
